<svg xmlns="http://www.w3.org/2000/svg" viewBox="0 0 102 102">
    <linearGradient x1="0%" x2="0%" y1="0%" y2="100%" id="a">
        <stop offset="0%" stop-color="#e5262e" />
        <stop offset="100%" stop-color="#c10109" />
    </linearGradient>
    <path fill="url(#a)"
        d="M30.135 75.965V63.59h-9.792a32.416 32.416 0 0 0 9.792 12.375zM17.66 51a30.746 30.746 0 0 0 .651 6.291h11.824V26.034A31.528 31.528 0 0 0 17.66 51zm28.953 31.869a35.772 35.772 0 0 0 4.116.252A33.691 33.691 0 0 0 81.657 63.59H46.613zm4.116-63.99a35.773 35.773 0 0 0-4.116.251v38.161H83.69A30.816 30.816 0 0 0 84.34 51c0-17.738-15.05-32.121-33.611-32.121z"
        fill-rule="evenodd" />
</svg>