<svg xmlns="http://www.w3.org/2000/svg" viewBox="0 0 240 240"><path d="M73.89 33.51Q57.167 20.1 40.45 6.67a2.341 2.341 0 0 0-1.455-.634 2.3 2.3 0 0 0-1.445.634Q20.828 20.085 4.108 33.51c-2 1.628-1.166 3.734 1.469 3.734h4.3c1.594 0 2.255.613 2.255 2.116v27.492c0 1.47.652 2.1 2.239 2.1h49.25c1.6 0 2.25-.634 2.25-2.1V39.36c0-1.5.653-2.116 2.248-2.116h4.306c2.646 0 3.459-2.106 1.465-3.734zm-23.7 20.633c0 1.492-.653 2.115-2.236 2.115H30.045c-1.576 0-2.244-.623-2.244-2.115V41.471c0-1.508.668-2.111 2.244-2.111h17.909c1.513 0 2.174.57 2.236 2.008z"/></svg>
