<?xml version="1.0" encoding="UTF-8" ?>
<!DOCTYPE svg PUBLIC "-//W3C//DTD SVG 1.1//EN" "http://www.w3.org/Graphics/SVG/1.1/DTD/svg11.dtd">
<svg viewBox="0 0 48 48" version="1.1" xmlns="http://www.w3.org/2000/svg">
<g id="#3e3d3cf8">
<path fill="#3e3d3c" opacity="0.97" d=" M 32.32 0.00 L 35.41 0.00 C 36.84 0.90 38.58 2.10 38.41 4.03 C 38.19 6.12 37.01 7.95 36.15 9.83 C 39.17 8.65 42.64 7.58 45.55 9.67 C 45.57 11.49 45.59 13.32 45.62 15.15 C 43.19 16.96 40.84 18.87 38.54 20.84 C 39.91 22.98 41.04 25.35 40.62 27.97 C 40.19 32.46 40.60 37.01 42.50 41.14 C 40.67 46.39 34.40 47.39 29.57 48.00 L 21.67 48.00 C 21.15 45.76 20.68 43.50 20.28 41.24 C 16.43 41.96 12.90 45.98 8.87 43.97 C 5.39 42.36 0.72 40.74 0.78 36.10 C -0.49 31.04 4.74 28.91 8.43 27.37 C 8.69 25.13 7.78 22.36 9.49 20.53 C 12.82 17.06 17.79 15.66 20.94 11.96 C 24.07 8.22 27.06 4.36 30.03 0.48 C 30.60 0.36 31.75 0.12 32.32 0.00 M 23.13 14.11 C 20.03 17.86 15.05 19.24 11.61 22.57 C 11.02 24.61 11.91 26.87 11.08 28.88 C 9.37 31.01 6.66 31.83 4.13 32.53 C 3.82 34.48 4.04 36.44 4.43 38.37 C 6.72 39.45 8.94 40.64 11.15 41.86 C 14.63 39.99 18.28 38.30 22.28 38.04 C 23.36 40.48 23.88 43.09 24.10 45.74 C 29.41 45.36 35.16 44.74 39.51 41.38 C 37.49 37.19 37.07 32.56 37.65 27.99 C 38.28 24.89 35.80 22.59 34.36 20.15 C 37.03 17.87 39.97 15.93 42.56 13.57 C 42.64 12.95 42.81 11.72 42.89 11.11 C 38.42 11.73 34.75 14.62 30.55 16.09 C 31.52 11.71 33.87 7.85 35.63 3.78 C 34.91 3.38 33.46 2.58 32.74 2.18 C 29.38 6.03 26.42 10.21 23.13 14.11 Z" />
</g>
<g id="#ea9200ff">
<path fill="#ea9200" opacity="1.00" d=" M 23.13 14.11 C 26.42 10.21 29.38 6.03 32.74 2.18 C 33.46 2.58 34.91 3.38 35.63 3.78 C 33.87 7.85 31.52 11.71 30.55 16.09 C 34.75 14.62 38.42 11.73 42.89 11.11 C 42.81 11.72 42.64 12.95 42.56 13.57 C 39.97 15.93 37.03 17.87 34.36 20.15 C 35.80 22.59 38.28 24.89 37.65 27.99 C 37.07 32.56 37.49 37.19 39.51 41.38 C 35.16 44.74 29.41 45.36 24.10 45.74 C 23.88 43.09 23.36 40.48 22.28 38.04 C 18.28 38.30 14.63 39.99 11.15 41.86 C 8.94 40.64 6.72 39.45 4.43 38.37 C 4.04 36.44 3.82 34.48 4.13 32.53 C 6.66 31.83 9.37 31.01 11.08 28.88 C 11.91 26.87 11.02 24.61 11.61 22.57 C 15.05 19.24 20.03 17.86 23.13 14.11 Z" />
</g>
</svg>
