<?xml version="1.0" encoding="UTF-8" ?>
<!DOCTYPE svg PUBLIC "-//W3C//DTD SVG 1.1//EN" "http://www.w3.org/Graphics/SVG/1.1/DTD/svg11.dtd">
<svg viewBox="0 0 200 200" version="1.1" xmlns="http://www.w3.org/2000/svg">
<g id="#000000ff">
<path fill="#000000" opacity="1.00" d=" M 96.22 6.31 C 97.53 3.33 102.21 3.21 103.86 5.94 C 105.66 9.51 105.53 13.83 107.71 17.23 C 110.03 19.93 113.47 21.25 116.52 22.92 C 124.81 18.25 135.20 19.48 143.41 23.67 C 149.23 26.51 153.48 31.55 157.82 36.18 C 159.23 37.46 159.16 39.43 159.28 41.16 C 160.53 41.46 161.77 41.82 162.99 42.23 C 164.02 40.88 164.90 39.36 166.24 38.30 C 168.66 36.72 172.28 38.17 172.95 40.97 C 173.61 46.21 171.63 51.51 167.97 55.26 C 176.38 67.55 179.21 83.31 176.30 97.85 C 178.61 96.29 181.90 94.21 184.45 96.57 C 187.47 99.22 185.14 103.46 184.36 106.60 C 182.35 113.74 176.05 118.72 169.18 120.88 C 168.31 130.12 163.00 138.37 155.84 144.07 C 156.43 150.04 161.40 153.78 164.55 158.41 C 166.48 161.36 163.45 165.74 160.01 164.95 C 156.58 164.17 153.40 162.65 150.09 161.51 C 147.51 169.34 142.20 175.78 136.94 181.96 C 134.98 184.61 130.40 183.86 129.30 180.80 C 128.55 178.16 129.49 175.40 129.67 172.75 C 122.83 178.79 114.46 183.76 105.09 183.93 C 94.72 184.80 84.96 180.09 77.17 173.62 C 77.23 176.47 78.70 180.04 76.32 182.35 C 74.39 184.30 70.94 183.85 69.43 181.61 C 64.93 176.22 60.37 170.72 57.53 164.23 C 54.38 165.31 51.35 166.94 48.00 167.30 C 44.76 167.17 42.60 163.05 44.57 160.39 C 47.78 155.90 52.54 152.11 53.12 146.22 C 47.72 142.58 42.94 137.85 39.99 131.98 C 38.04 128.34 37.68 124.05 35.42 120.55 C 31.08 113.41 29.86 104.83 30.36 96.61 C 24.13 95.00 18.25 91.89 13.86 87.13 C 11.94 84.87 13.25 80.97 16.07 80.19 C 21.03 79.37 26.57 80.83 31.03 77.92 C 33.45 76.21 36.31 74.16 36.31 70.86 C 36.88 65.38 38.94 60.27 41.27 55.34 C 43.19 48.48 45.01 41.26 49.79 35.74 C 59.92 23.45 76.87 18.94 92.26 20.31 C 93.14 15.54 94.32 10.79 96.22 6.31 M 97.01 25.66 C 81.91 22.42 64.31 25.93 53.78 37.87 C 49.70 42.21 48.12 48.07 46.22 53.55 C 47.86 51.90 49.64 50.39 51.38 48.83 C 46.50 55.05 41.98 61.98 41.00 70.01 C 40.48 72.12 40.98 74.70 39.33 76.39 C 36.56 79.60 33.16 82.53 28.98 83.64 C 25.23 84.54 21.34 84.29 17.52 84.46 C 22.28 89.33 28.75 92.05 35.46 92.83 C 33.76 102.24 34.94 112.73 40.88 120.50 C 42.04 125.09 43.31 129.78 46.24 133.60 C 48.80 137.48 52.63 140.17 56.15 143.09 C 56.52 142.80 56.88 142.51 57.23 142.22 C 51.00 137.60 47.40 130.22 44.95 123.03 C 44.30 121.01 42.82 119.43 41.57 117.77 L 41.47 118.15 C 40.06 114.46 38.01 110.95 37.48 106.97 C 36.35 101.57 37.08 96.04 38.12 90.69 C 32.97 90.52 27.99 89.03 23.49 86.58 C 31.21 86.57 38.42 82.18 42.45 75.71 C 43.05 71.21 43.40 66.59 45.37 62.42 C 50.62 49.86 62.34 41.44 74.46 36.15 C 65.85 37.26 57.31 40.23 50.84 46.20 C 55.70 36.85 65.15 30.66 75.22 28.20 C 83.54 26.27 92.62 25.80 100.66 29.09 C 98.67 25.23 98.80 20.81 99.64 16.67 C 101.28 19.20 102.65 22.05 105.16 23.87 C 108.80 26.91 113.92 27.90 116.79 31.89 C 118.50 29.88 120.43 27.87 123.09 27.20 C 131.55 24.97 140.71 28.29 146.93 34.16 C 141.34 32.53 135.49 31.63 129.67 32.40 C 138.30 32.91 147.33 36.14 152.32 43.59 C 154.80 48.16 160.69 48.17 165.23 48.55 C 163.00 50.84 160.25 52.50 157.15 53.29 C 162.87 57.90 166.47 64.62 168.63 71.54 C 171.86 82.19 171.86 94.11 167.08 104.30 C 170.37 106.72 174.46 105.83 178.13 105.04 C 175.75 111.13 169.45 114.79 163.01 114.59 C 162.61 123.94 158.91 132.85 153.20 140.19 C 159.99 134.87 165.74 126.15 164.08 117.25 C 168.85 116.50 173.65 114.69 176.88 110.95 C 179.70 107.93 180.41 103.72 181.56 99.91 C 178.06 102.21 174.25 104.42 169.88 103.90 C 175.87 87.47 173.09 67.60 161.34 54.37 C 163.47 52.86 165.79 51.36 167.05 48.99 C 168.16 46.86 168.30 44.42 168.73 42.10 C 167.45 43.84 166.31 46.09 163.93 46.40 C 161.03 46.71 158.25 45.46 155.56 44.56 C 153.98 42.13 152.11 39.91 150.10 37.82 C 151.36 38.29 153.89 39.22 155.15 39.68 C 150.69 35.54 146.99 30.35 141.36 27.66 C 133.79 23.77 123.61 22.59 116.66 28.37 C 113.04 25.87 108.77 24.37 105.45 21.43 C 101.81 18.16 101.57 12.94 100.08 8.58 C 98.15 14.06 96.12 19.75 97.01 25.66 M 128.86 100.76 C 128.05 103.16 127.40 105.69 125.83 107.74 C 119.19 116.90 108.90 122.71 102.59 132.15 L 102.64 132.61 C 100.65 135.01 99.75 138.02 98.95 140.99 C 97.71 138.45 96.58 135.86 95.75 133.16 C 95.55 132.72 95.15 131.84 94.95 131.40 C 94.02 126.63 95.27 121.91 97.33 117.63 C 95.16 119.58 92.06 121.31 91.21 124.18 C 90.08 126.03 89.13 127.97 88.33 129.98 C 86.71 126.75 85.95 123.20 86.68 119.61 L 86.26 119.44 C 86.78 115.44 87.72 111.52 88.87 107.66 C 85.90 110.63 82.89 113.57 79.63 116.22 C 76.72 118.61 73.66 120.88 70.12 122.27 C 71.25 119.68 72.43 117.11 73.50 114.50 C 73.59 112.05 73.81 109.60 73.90 107.15 C 72.35 107.55 70.71 107.79 69.15 107.27 C 60.64 105.21 52.12 103.17 43.52 101.47 C 46.69 112.73 52.23 123.21 59.57 132.29 C 60.73 137.83 62.99 143.06 65.35 148.18 C 64.51 147.70 62.83 146.76 62.00 146.29 C 63.46 151.76 66.06 156.91 70.16 160.88 C 69.97 164.54 70.01 168.21 70.21 171.87 C 66.11 167.00 62.98 161.26 61.84 154.95 C 59.58 156.05 57.29 157.09 55.02 158.18 C 58.26 154.24 59.83 149.23 59.73 144.15 C 58.69 144.09 57.66 144.05 56.63 144.01 C 59.26 151.45 52.45 157.56 48.16 162.82 C 52.25 161.37 56.34 159.92 60.33 158.20 C 62.32 166.38 67.97 172.79 73.19 179.10 C 72.56 173.74 71.87 168.36 72.11 162.94 C 80.66 171.40 91.10 180.12 103.91 179.44 C 116.47 179.54 126.01 170.29 134.50 162.22 C 134.71 167.90 134.12 173.56 133.40 179.18 C 139.31 172.09 145.56 164.62 146.91 155.15 C 151.28 157.22 155.81 158.91 160.42 160.38 C 158.15 157.36 155.42 154.68 153.50 151.41 C 151.81 148.53 151.55 145.14 151.32 141.89 C 147.22 146.05 151.40 151.90 153.87 155.84 C 150.85 154.58 147.86 153.19 145.23 151.21 C 144.96 158.93 141.46 166.10 136.53 171.90 C 136.80 168.05 136.86 164.16 136.32 160.33 C 139.50 157.02 142.08 153.19 143.96 149.01 C 143.70 148.65 143.19 147.93 142.94 147.57 C 146.29 142.42 147.94 136.34 148.27 130.24 C 154.95 121.72 159.71 111.82 162.74 101.45 C 154.45 102.94 146.36 105.41 138.05 106.73 C 137.57 105.34 137.03 103.97 136.54 102.59 C 135.84 108.09 131.90 112.35 128.05 116.02 C 125.82 117.25 123.96 120.61 121.04 118.89 C 122.10 118.10 123.65 117.74 124.27 116.45 C 126.84 111.60 128.09 106.15 128.86 100.76 Z" />
</g>
<g id="#b2b2b2ff">
<path fill="#b2b2b2" opacity="1.00" d=" M 97.01 25.66 C 96.12 19.75 98.15 14.06 100.08 8.58 C 101.57 12.94 101.81 18.16 105.45 21.43 C 108.77 24.37 113.04 25.87 116.66 28.37 C 123.61 22.59 133.79 23.77 141.36 27.66 C 146.99 30.35 150.69 35.54 155.15 39.68 C 153.89 39.22 151.36 38.29 150.10 37.82 C 152.11 39.91 153.98 42.13 155.56 44.56 C 158.25 45.46 161.03 46.71 163.93 46.40 C 166.31 46.09 167.45 43.84 168.73 42.10 C 168.30 44.42 168.16 46.86 167.05 48.99 C 165.79 51.36 163.47 52.86 161.34 54.37 C 173.09 67.60 175.87 87.47 169.88 103.90 C 174.25 104.42 178.06 102.21 181.56 99.91 C 180.41 103.72 179.70 107.93 176.88 110.95 C 173.65 114.69 168.85 116.50 164.08 117.25 C 163.81 116.59 163.28 115.26 163.01 114.59 C 169.45 114.79 175.75 111.13 178.13 105.04 C 174.46 105.83 170.37 106.72 167.08 104.30 C 171.86 94.11 171.86 82.19 168.63 71.54 C 166.47 64.62 162.87 57.90 157.15 53.29 C 160.25 52.50 163.00 50.84 165.23 48.55 C 160.69 48.17 154.80 48.16 152.32 43.59 C 147.33 36.14 138.30 32.91 129.67 32.40 C 135.49 31.63 141.34 32.53 146.93 34.16 C 140.71 28.29 131.55 24.97 123.09 27.20 C 120.43 27.87 118.50 29.88 116.79 31.89 C 113.92 27.90 108.80 26.91 105.16 23.87 C 102.65 22.05 101.28 19.20 99.64 16.67 C 98.80 20.81 98.67 25.23 100.66 29.09 C 92.62 25.80 83.54 26.27 75.22 28.20 C 65.15 30.66 55.70 36.85 50.84 46.20 C 57.31 40.23 65.85 37.26 74.46 36.15 C 62.34 41.44 50.62 49.86 45.37 62.42 C 43.40 66.59 43.05 71.21 42.45 75.71 C 38.42 82.18 31.21 86.57 23.49 86.58 C 27.99 89.03 32.97 90.52 38.12 90.69 C 37.08 96.04 36.35 101.57 37.48 106.97 C 38.01 110.95 40.06 114.46 41.47 118.15 C 41.32 118.74 41.03 119.91 40.88 120.50 C 34.94 112.73 33.76 102.24 35.46 92.83 C 28.75 92.05 22.28 89.33 17.52 84.46 C 21.34 84.29 25.23 84.54 28.98 83.64 C 33.16 82.53 36.56 79.60 39.33 76.39 C 40.98 74.70 40.48 72.12 41.00 70.01 C 41.98 61.98 46.50 55.05 51.38 48.83 C 49.64 50.39 47.86 51.90 46.22 53.55 C 48.12 48.07 49.70 42.21 53.78 37.87 C 64.31 25.93 81.91 22.42 97.01 25.66 Z" />
</g>
<g id="#ffffffff">
<path fill="#ffffff" opacity="1.00" d=" M 128.86 100.76 C 128.09 106.15 126.84 111.60 124.27 116.45 C 123.65 117.74 122.10 118.10 121.04 118.89 C 115.14 121.55 113.25 128.09 110.45 133.35 C 112.86 132.33 115.23 130.58 117.99 130.95 C 123.35 131.22 129.21 133.19 134.17 130.23 C 140.66 126.32 144.09 119.19 147.29 112.62 C 140.81 113.20 134.19 113.69 128.05 116.02 C 131.90 112.35 135.84 108.09 136.54 102.59 C 137.03 103.97 137.57 105.34 138.05 106.73 C 146.36 105.41 154.45 102.94 162.74 101.45 C 159.71 111.82 154.95 121.72 148.27 130.24 C 144.27 134.76 139.39 138.62 133.77 140.91 C 128.56 143.26 122.70 138.73 117.62 141.74 C 112.45 144.83 107.99 148.95 103.12 152.48 C 102.97 145.85 103.62 139.19 102.64 132.61 L 102.59 132.15 C 108.90 122.71 119.19 116.90 125.83 107.74 C 127.40 105.69 128.05 103.16 128.86 100.76 Z" />
</g>
<g id="#9a9a9aff">
<path fill="#9a9a9a" opacity="1.00" d=" M 43.52 101.47 C 52.12 103.17 60.64 105.21 69.15 107.27 C 70.71 107.79 72.35 107.55 73.90 107.15 C 73.81 109.60 73.59 112.05 73.50 114.50 C 68.72 113.57 63.88 112.98 59.02 112.62 C 62.19 119.11 65.53 126.19 71.93 130.09 C 76.81 133.14 82.68 131.28 88.00 131.00 C 90.78 130.69 93.27 132.15 95.75 133.16 C 96.58 135.86 97.71 138.45 98.95 140.99 C 99.75 138.02 100.65 135.01 102.64 132.61 C 103.62 139.19 102.97 145.85 103.12 152.48 C 99.23 149.52 95.29 146.61 91.42 143.61 C 89.53 142.20 87.47 140.66 85.00 140.63 C 81.68 140.55 78.48 141.74 75.17 141.76 C 69.10 140.41 64.28 136.11 59.57 132.29 C 52.23 123.21 46.69 112.73 43.52 101.47 Z" />
</g>
<g id="#9b9b9bff">
<path fill="#9b9b9b" opacity="1.00" d=" M 79.63 116.22 C 82.89 113.57 85.90 110.63 88.87 107.66 C 87.72 111.52 86.78 115.44 86.26 119.44 C 84.05 118.36 81.98 116.99 79.63 116.22 Z" />
<path fill="#9b9b9b" opacity="1.00" d=" M 91.21 124.18 C 92.06 121.31 95.16 119.58 97.33 117.63 C 95.27 121.91 94.02 126.63 94.95 131.40 C 93.78 128.95 92.46 126.59 91.21 124.18 Z" />
</g>
<g id="#1b1b1bff">
<path fill="#1b1b1b" opacity="1.00" d=" M 59.02 112.62 C 63.88 112.98 68.72 113.57 73.50 114.50 C 72.43 117.11 71.25 119.68 70.12 122.27 C 73.66 120.88 76.72 118.61 79.63 116.22 C 81.98 116.99 84.05 118.36 86.26 119.44 L 86.68 119.61 C 85.95 123.20 86.71 126.75 88.33 129.98 C 89.13 127.97 90.08 126.03 91.21 124.18 C 92.46 126.59 93.78 128.95 94.95 131.40 C 95.15 131.84 95.55 132.72 95.75 133.16 C 93.27 132.15 90.78 130.69 88.00 131.00 C 82.68 131.28 76.81 133.14 71.93 130.09 C 65.53 126.19 62.19 119.11 59.02 112.62 Z" />
<path fill="#1b1b1b" opacity="1.00" d=" M 128.05 116.02 C 134.19 113.69 140.81 113.20 147.29 112.62 C 144.09 119.19 140.66 126.32 134.17 130.23 C 129.21 133.19 123.35 131.22 117.99 130.95 C 115.23 130.58 112.86 132.33 110.45 133.35 C 113.25 128.09 115.14 121.55 121.04 118.89 C 123.96 120.61 125.82 117.25 128.05 116.02 Z" />
</g>
<g id="#fdc9b9ff">
<path fill="#fdc9b9" opacity="1.00" d=" M 163.01 114.59 C 163.28 115.26 163.81 116.59 164.08 117.25 C 165.74 126.15 159.99 134.87 153.20 140.19 C 158.91 132.85 162.61 123.94 163.01 114.59 Z" />
<path fill="#fdc9b9" opacity="1.00" d=" M 41.47 118.15 L 41.57 117.77 C 42.82 119.43 44.30 121.01 44.95 123.03 C 47.40 130.22 51.00 137.60 57.23 142.22 C 56.88 142.51 56.52 142.80 56.15 143.09 C 52.63 140.17 48.80 137.48 46.24 133.60 C 43.31 129.78 42.04 125.09 40.88 120.50 C 41.03 119.91 41.32 118.74 41.47 118.15 Z" />
</g>
<g id="#fddcc3ff">
<path fill="#fddcc3" opacity="1.00" d=" M 133.77 140.91 C 139.39 138.62 144.27 134.76 148.27 130.24 C 147.94 136.34 146.29 142.42 142.94 147.57 C 143.19 147.93 143.70 148.65 143.96 149.01 C 142.08 153.19 139.50 157.02 136.32 160.33 C 135.72 160.96 135.11 161.60 134.50 162.22 C 126.01 170.29 116.47 179.54 103.91 179.44 C 91.10 180.12 80.66 171.40 72.11 162.94 C 71.45 162.26 70.80 161.57 70.16 160.88 C 66.06 156.91 63.46 151.76 62.00 146.29 C 62.83 146.76 64.51 147.70 65.35 148.18 C 62.99 143.06 60.73 137.83 59.57 132.29 C 64.28 136.11 69.10 140.41 75.17 141.76 C 78.48 141.74 81.68 140.55 85.00 140.63 C 87.47 140.66 89.53 142.20 91.42 143.61 C 95.29 146.61 99.23 149.52 103.12 152.48 C 107.99 148.95 112.45 144.83 117.62 141.74 C 122.70 138.73 128.56 143.26 133.77 140.91 Z" />
</g>
<g id="#b1b3b1ff">
<path fill="#b1b3b1" opacity="1.00" d=" M 153.87 155.84 C 151.40 151.90 147.22 146.05 151.32 141.89 C 151.55 145.14 151.81 148.53 153.50 151.41 C 155.42 154.68 158.15 157.36 160.42 160.38 C 155.81 158.91 151.28 157.22 146.91 155.15 C 145.56 164.62 139.31 172.09 133.40 179.18 C 134.12 173.56 134.71 167.90 134.50 162.22 C 135.11 161.60 135.72 160.96 136.32 160.33 C 136.86 164.16 136.80 168.05 136.53 171.90 C 141.46 166.10 144.96 158.93 145.23 151.21 C 147.86 153.19 150.85 154.58 153.87 155.84 Z" />
</g>
<g id="#b0b2b1ff">
<path fill="#b0b2b1" opacity="1.00" d=" M 56.63 144.01 C 57.66 144.05 58.69 144.09 59.73 144.15 C 59.83 149.23 58.26 154.24 55.02 158.18 C 57.29 157.09 59.58 156.05 61.84 154.95 C 62.98 161.26 66.11 167.00 70.21 171.87 C 70.01 168.21 69.97 164.54 70.16 160.88 C 70.80 161.57 71.45 162.26 72.11 162.94 C 71.87 168.36 72.56 173.74 73.19 179.10 C 67.97 172.79 62.32 166.38 60.33 158.20 C 56.34 159.92 52.25 161.37 48.16 162.82 C 52.45 157.56 59.26 151.45 56.63 144.01 Z" />
</g>
</svg>
