<?xml version="1.0" encoding="UTF-8" ?>
<!DOCTYPE svg PUBLIC "-//W3C//DTD SVG 1.1//EN" "http://www.w3.org/Graphics/SVG/1.1/DTD/svg11.dtd">
<svg viewBox="0 0 64 64" version="1.1" xmlns="http://www.w3.org/2000/svg">
<g id="#373636ff">
<path fill="#373636" opacity="1.00" d=" M 8.32 15.59 C 13.19 9.83 19.37 4.71 26.97 3.24 C 31.61 1.91 36.57 3.13 40.72 5.34 C 44.49 7.38 46.21 11.64 49.65 14.07 C 51.72 15.64 54.14 16.93 55.53 19.22 C 58.12 23.31 58.54 28.29 58.62 33.01 C 60.34 34.97 62.04 36.93 63.64 38.98 C 62.57 45.99 56.24 49.97 51.82 54.84 C 48.85 57.59 46.17 61.38 41.95 62.14 C 38.02 61.65 35.80 57.55 32.01 56.68 C 28.88 55.88 25.63 55.52 22.63 54.29 C 13.83 50.45 6.61 42.49 4.93 32.88 C 3.70 26.91 5.85 20.95 8.32 15.59 M 20.70 9.75 C 14.17 13.58 8.35 20.07 8.05 27.97 C 7.58 41.93 21.51 54.53 35.33 52.78 C 37.13 54.95 38.88 57.24 41.22 58.85 C 45.52 57.57 47.90 53.09 51.22 50.30 C 54.17 47.19 57.66 44.54 60.11 40.98 C 58.72 38.47 56.26 34.56 52.94 35.81 C 55.58 31.03 54.76 24.80 51.58 20.48 C 49.85 18.10 47.02 17.07 44.57 15.66 C 43.28 13.02 41.69 10.31 39.03 8.85 C 33.40 5.57 26.12 6.45 20.70 9.75 Z" />
</g>
<g id="#fb3530ff">
<path fill="#fb3530" opacity="1.00" d=" M 20.70 9.75 C 26.12 6.45 33.40 5.57 39.03 8.85 C 41.69 10.31 43.28 13.02 44.57 15.66 C 47.02 17.07 49.85 18.10 51.58 20.48 C 54.76 24.80 55.58 31.03 52.94 35.81 C 47.22 41.59 41.94 47.97 35.33 52.78 C 21.51 54.53 7.58 41.93 8.05 27.97 C 8.35 20.07 14.17 13.58 20.70 9.75 M 31.57 28.08 C 31.30 29.91 31.13 31.78 30.60 33.56 C 26.42 37.60 20.18 39.64 14.54 37.70 C 17.14 39.45 19.63 42.09 23.02 41.87 C 27.59 42.16 31.38 39.29 34.90 36.80 C 36.58 36.72 38.26 36.62 39.94 36.51 C 40.96 35.66 41.93 34.76 42.86 33.81 C 40.07 33.96 36.54 36.29 34.26 33.72 C 32.19 31.72 32.90 28.45 34.57 26.43 C 37.45 22.78 40.96 19.23 45.56 17.92 C 44.91 17.41 44.25 16.90 43.60 16.40 C 38.80 19.28 34.13 22.99 31.57 28.08 Z" />
</g>
<g id="#1c1c1c71">
<path fill="#1c1c1c" opacity="0.44" d=" M 9.06 44.99 C 2.71 36.79 0.83 23.67 8.32 15.59 C 5.85 20.95 3.70 26.91 4.93 32.88 C 6.61 42.49 13.83 50.45 22.63 54.29 C 25.63 55.52 28.88 55.88 32.01 56.68 C 35.80 57.55 38.02 61.65 41.95 62.14 C 46.17 61.38 48.85 57.59 51.82 54.84 C 56.24 49.97 62.57 45.99 63.64 38.98 L 64.00 37.24 L 64.00 43.35 C 59.95 48.79 54.64 53.08 50.07 58.06 C 47.57 60.46 44.78 63.70 40.95 63.26 C 37.74 62.25 35.58 59.39 32.54 58.07 C 28.99 56.90 25.17 56.66 21.72 55.17 C 16.72 52.94 12.44 49.25 9.06 44.99 Z" />
</g>
<g id="#140807ff">
<path fill="#140807" opacity="1.00" d=" M 31.57 28.08 C 34.13 22.99 38.80 19.28 43.60 16.40 C 44.25 16.90 44.91 17.41 45.56 17.92 C 40.96 19.23 37.45 22.78 34.57 26.43 C 32.90 28.45 32.19 31.72 34.26 33.72 C 36.54 36.29 40.07 33.96 42.86 33.81 C 41.93 34.76 40.96 35.66 39.94 36.51 C 37.61 36.41 34.87 36.68 33.01 35.01 C 31.33 33.15 31.61 30.40 31.57 28.08 Z" />
</g>
<g id="#ac0000ff">
<path fill="#ac0000" opacity="1.00" d=" M 30.60 33.56 C 31.13 31.78 31.30 29.91 31.57 28.08 C 31.61 30.40 31.33 33.15 33.01 35.01 C 34.87 36.68 37.61 36.41 39.94 36.51 C 38.26 36.62 36.58 36.72 34.90 36.80 C 31.38 39.29 27.59 42.16 23.02 41.87 C 19.63 42.09 17.14 39.45 14.54 37.70 C 20.18 39.64 26.42 37.60 30.60 33.56 Z" />
</g>
<g id="#810000ff">
<path fill="#810000" opacity="1.00" d=" M 35.33 52.78 C 41.94 47.97 47.22 41.59 52.94 35.81 C 56.26 34.56 58.72 38.47 60.11 40.98 C 57.66 44.54 54.17 47.19 51.22 50.30 C 47.90 53.09 45.52 57.57 41.22 58.85 C 38.88 57.24 37.13 54.95 35.33 52.78 Z" />
</g>
</svg>
