<?xml version="1.0" encoding="UTF-8" ?>
<!DOCTYPE svg PUBLIC "-//W3C//DTD SVG 1.1//EN" "http://www.w3.org/Graphics/SVG/1.1/DTD/svg11.dtd">
<svg viewBox="0 0 64 64" version="1.1" xmlns="http://www.w3.org/2000/svg">
<g id="#363434fe">
<path fill="#363434" opacity="1.00" d=" M 1.37 5.65 C 3.72 2.03 8.49 3.45 12.00 4.10 C 17.00 5.44 22.34 5.65 27.06 7.89 C 31.39 15.59 37.62 21.96 44.03 27.95 C 45.04 29.09 46.48 29.56 47.96 29.56 C 49.12 28.08 50.39 26.69 51.69 25.34 C 53.23 25.30 54.77 25.35 56.30 25.49 C 57.64 26.04 57.61 27.79 58.29 28.88 C 58.29 30.61 58.29 32.33 58.23 34.06 C 57.88 35.30 57.56 36.55 57.27 37.81 C 56.19 39.14 54.31 40.15 54.31 42.06 C 55.71 44.82 58.94 45.81 60.83 48.12 C 62.39 51.27 62.68 54.83 62.57 58.30 C 61.80 59.07 61.04 59.83 60.28 60.60 C 57.79 60.59 55.31 60.51 52.82 60.44 C 49.20 59.28 47.13 55.94 44.51 53.44 C 44.11 53.48 43.32 53.55 42.92 53.59 C 40.64 58.15 35.23 58.04 30.85 58.34 C 29.80 57.86 28.72 57.46 27.62 57.13 C 26.70 53.84 27.87 50.51 30.63 48.54 C 30.83 46.59 29.89 44.86 28.44 43.62 C 23.16 38.85 17.47 34.54 11.37 30.87 C 9.02 29.93 6.64 28.42 6.17 25.70 C 4.43 19.07 1.19 12.62 1.37 5.65 M 4.87 6.92 C 6.11 12.51 7.94 17.95 9.56 23.43 C 10.06 24.43 10.15 26.71 11.73 26.41 C 20.09 31.86 29.23 37.13 34.77 45.70 C 36.28 45.37 37.80 45.06 39.32 44.75 C 36.63 48.09 33.34 50.94 30.91 54.49 C 33.13 54.08 35.41 54.04 37.62 53.59 C 39.52 51.68 41.20 49.56 43.11 47.64 C 46.75 49.65 49.70 52.70 52.19 55.99 C 54.44 56.52 56.74 56.81 59.04 57.04 C 58.61 54.80 58.15 52.57 57.61 50.36 C 54.14 47.99 50.97 45.18 48.32 41.91 C 50.10 39.81 52.12 37.92 53.82 35.75 C 54.42 33.49 53.92 31.06 54.07 28.74 C 51.20 31.64 48.59 34.80 45.67 37.66 C 45.66 36.26 45.67 34.85 45.72 33.45 C 40.60 31.23 36.98 26.82 33.24 22.86 C 30.04 19.07 26.69 15.30 24.39 10.86 C 17.96 9.24 11.44 7.88 4.87 6.92 Z" />
</g>
<g id="#f9f8f7ff">
<path fill="#f9f8f7" opacity="1.00" d=" M 4.87 6.92 C 11.44 7.88 17.96 9.24 24.39 10.86 C 24.00 15.00 23.95 19.32 22.24 23.18 C 18.88 24.65 15.19 25.21 11.73 26.41 C 10.15 26.71 10.06 24.43 9.56 23.43 C 7.94 17.95 6.11 12.51 4.87 6.92 Z" />
</g>
<g id="#deddddff">
<path fill="#dedddd" opacity="1.00" d=" M 24.39 10.86 C 26.69 15.30 30.04 19.07 33.24 22.86 C 36.98 26.82 40.60 31.23 45.72 33.45 C 45.67 34.85 45.66 36.26 45.67 37.66 C 43.52 40.00 41.45 42.40 39.32 44.75 C 37.80 45.06 36.28 45.37 34.77 45.70 C 29.23 37.13 20.09 31.86 11.73 26.41 C 15.19 25.21 18.88 24.65 22.24 23.18 C 23.95 19.32 24.00 15.00 24.39 10.86 Z" />
</g>
<g id="#caa13aff">
<path fill="#caa13a" opacity="1.00" d=" M 45.67 37.66 C 48.59 34.80 51.20 31.64 54.07 28.74 C 53.92 31.06 54.42 33.49 53.82 35.75 C 52.12 37.92 50.10 39.81 48.32 41.91 C 50.97 45.18 54.14 47.99 57.61 50.36 C 58.15 52.57 58.61 54.80 59.04 57.04 C 56.74 56.81 54.44 56.52 52.19 55.99 C 49.70 52.70 46.75 49.65 43.11 47.64 C 41.20 49.56 39.52 51.68 37.62 53.59 C 35.41 54.04 33.13 54.08 30.91 54.49 C 33.34 50.94 36.63 48.09 39.32 44.75 C 41.45 42.40 43.52 40.00 45.67 37.66 Z" />
</g>
</svg>
