<?xml version="1.0" encoding="UTF-8" ?>
<!DOCTYPE svg PUBLIC "-//W3C//DTD SVG 1.1//EN" "http://www.w3.org/Graphics/SVG/1.1/DTD/svg11.dtd">
<svg viewBox="0 0 64 64" version="1.1" xmlns="http://www.w3.org/2000/svg">
<g id="#363534fc">
<path fill="#363534" opacity="1.00" d=" M 17.56 6.80 C 22.65 5.04 26.96 9.91 32.06 8.47 C 30.75 8.80 29.44 9.14 28.13 9.48 C 31.10 9.20 34.24 9.20 36.87 10.83 C 43.70 14.80 48.82 20.95 53.50 27.18 C 55.96 31.36 59.34 35.88 58.34 41.02 C 56.81 47.96 51.60 54.04 44.82 56.30 C 35.89 57.89 27.89 52.50 20.65 48.06 C 16.08 44.37 10.42 40.76 9.12 34.61 C 8.21 30.16 4.15 26.66 4.67 21.89 C 6.14 15.18 11.17 9.29 17.56 6.80 M 9.19 20.24 C 7.15 24.11 10.73 27.67 12.27 31.01 C 12.72 32.66 13.12 34.32 13.41 36.01 L 13.55 35.67 C 18.10 42.79 26.01 46.92 33.32 50.69 L 32.69 50.64 C 34.58 51.10 36.40 51.83 38.27 52.33 C 40.76 54.13 43.95 52.35 46.38 51.27 C 51.15 48.23 55.79 42.55 54.09 36.55 C 53.46 34.50 52.23 32.72 51.20 30.86 C 49.53 27.94 47.15 25.52 44.98 22.97 C 41.16 18.86 37.07 14.49 31.45 13.00 C 30.63 13.01 29.00 13.01 28.18 13.01 C 25.57 11.91 22.92 10.60 20.06 10.35 C 15.05 11.43 11.30 15.76 9.19 20.24 Z" />
</g>
<g id="#0563d2ff">
<path fill="#0563d2" opacity="1.00" d=" M 9.19 20.24 C 11.30 15.76 15.05 11.43 20.06 10.35 C 22.92 10.60 25.57 11.91 28.18 13.01 C 31.93 16.80 28.36 22.36 25.74 25.72 C 22.61 29.37 17.22 34.12 12.27 31.01 C 10.73 27.67 7.15 24.11 9.19 20.24 M 11.29 22.62 C 11.67 22.84 12.42 23.28 12.80 23.51 C 16.54 21.29 20.17 17.82 20.68 13.28 C 16.03 13.89 12.68 18.40 11.29 22.62 Z" />
<path fill="#0563d2" opacity="1.00" d=" M 31.45 13.00 C 37.07 14.49 41.16 18.86 44.98 22.97 C 47.15 25.52 49.53 27.94 51.20 30.86 C 52.43 35.47 50.38 39.94 47.98 43.76 C 41.24 38.32 34.81 32.51 28.17 26.97 C 30.99 23.10 34.80 17.68 31.45 13.00 Z" />
<path fill="#0563d2" opacity="1.00" d=" M 26.32 28.98 C 32.98 34.49 39.44 40.25 46.08 45.78 C 42.65 48.94 38.18 51.58 33.32 50.69 C 26.01 46.92 18.10 42.79 13.55 35.67 L 13.86 34.96 C 18.87 35.49 23.04 32.38 26.32 28.98 Z" />
<path fill="#0563d2" opacity="1.00" d=" M 38.27 52.33 C 46.31 51.51 52.07 43.89 54.09 36.55 C 55.79 42.55 51.15 48.23 46.38 51.27 C 43.95 52.35 40.76 54.13 38.27 52.33 Z" />
</g>
<g id="#fffffeff">
<path fill="#fffffe" opacity="1.00" d=" M 28.18 13.01 C 29.00 13.01 30.63 13.01 31.45 13.00 C 34.80 17.68 30.99 23.10 28.17 26.97 C 34.81 32.51 41.24 38.32 47.98 43.76 C 50.38 39.94 52.43 35.47 51.20 30.86 C 52.23 32.72 53.46 34.50 54.09 36.55 C 52.07 43.89 46.31 51.51 38.27 52.33 C 36.40 51.83 34.58 51.10 32.69 50.64 L 33.32 50.69 C 38.18 51.58 42.65 48.94 46.08 45.78 C 39.44 40.25 32.98 34.49 26.32 28.98 C 23.04 32.38 18.87 35.49 13.86 34.96 L 13.55 35.67 L 13.41 36.01 C 13.12 34.32 12.72 32.66 12.27 31.01 C 17.22 34.12 22.61 29.37 25.74 25.72 C 28.36 22.36 31.93 16.80 28.18 13.01 Z" />
<path fill="#fffffe" opacity="1.00" d=" M 11.29 22.62 C 12.68 18.40 16.03 13.89 20.68 13.28 C 20.17 17.82 16.54 21.29 12.80 23.51 C 12.42 23.28 11.67 22.84 11.29 22.62 Z" />
</g>
</svg>
