<?xml version="1.0" encoding="UTF-8" ?>
<!DOCTYPE svg PUBLIC "-//W3C//DTD SVG 1.1//EN" "http://www.w3.org/Graphics/SVG/1.1/DTD/svg11.dtd">
<svg width="64pt" height="64pt" viewBox="0 0 64 64" version="1.1" xmlns="http://www.w3.org/2000/svg">
<g id="#3d3c3efc">
<path fill="#3d3c3e" opacity="1.00" d=" M 24.53 4.81 C 33.45 3.60 43.72 3.90 50.87 10.11 C 62.35 19.08 65.47 37.75 56.45 49.48 C 50.50 56.42 40.89 59.15 32.00 58.71 C 23.33 59.15 14.06 56.56 8.04 50.04 C 0.53 41.10 0.80 27.49 6.57 17.72 C 10.18 10.93 17.16 6.51 24.53 4.81 M 25.52 8.65 C 17.74 10.10 11.04 15.75 8.20 23.12 C 5.61 30.08 5.24 38.40 9.23 44.92 C 12.70 50.67 19.36 53.67 25.80 54.59 C 33.83 55.59 42.59 55.04 49.49 50.41 C 54.61 47.09 57.49 41.04 57.71 35.05 C 58.04 27.68 55.68 19.93 50.23 14.77 C 43.85 8.47 34.05 6.92 25.52 8.65 Z" />
<path fill="#3d3c3e" opacity="1.00" d=" M 27.10 35.34 C 28.48 35.03 29.02 35.57 28.74 36.94 C 27.36 37.24 26.81 36.71 27.10 35.34 Z" />
<path fill="#3d3c3e" opacity="1.00" d=" M 35.09 35.50 C 36.49 34.88 36.93 35.29 36.41 36.72 C 35.01 37.35 34.57 36.95 35.09 35.50 Z" />
<path fill="#3d3c3e" opacity="1.00" d=" M 16.93 42.76 C 14.67 42.80 12.90 41.33 11.99 39.37 C 15.08 41.65 19.01 40.75 22.53 41.57 C 25.77 42.03 28.82 43.27 32.01 43.91 C 34.89 43.27 37.66 42.17 40.59 41.71 C 44.44 40.81 48.63 41.54 52.15 39.41 C 50.85 41.01 49.39 42.77 47.12 42.72 C 41.90 42.89 36.76 43.99 31.91 45.94 C 27.15 43.97 22.08 42.92 16.93 42.76 Z" />
</g>
<g id="#56dbf9ff">
<path fill="#56dbf9" opacity="1.00" d=" M 25.52 8.65 C 34.05 6.92 43.85 8.47 50.23 14.77 C 55.68 19.93 58.04 27.68 57.71 35.05 C 57.49 41.04 54.61 47.09 49.49 50.41 C 42.59 55.04 33.83 55.59 25.80 54.59 C 19.36 53.67 12.70 50.67 9.23 44.92 C 5.24 38.40 5.61 30.08 8.20 23.12 C 11.04 15.75 17.74 10.10 25.52 8.65 M 27.10 35.34 C 26.81 36.71 27.36 37.24 28.74 36.94 C 29.02 35.57 28.48 35.03 27.10 35.34 M 35.09 35.50 C 34.57 36.95 35.01 37.35 36.41 36.72 C 36.93 35.29 36.49 34.88 35.09 35.50 M 16.93 42.76 C 22.08 42.92 27.15 43.97 31.91 45.94 C 36.76 43.99 41.90 42.89 47.12 42.72 C 49.39 42.77 50.85 41.01 52.15 39.41 C 48.63 41.54 44.44 40.81 40.59 41.71 C 37.66 42.17 34.89 43.27 32.01 43.91 C 28.82 43.27 25.77 42.03 22.53 41.57 C 19.01 40.75 15.08 41.65 11.99 39.37 C 12.90 41.33 14.67 42.80 16.93 42.76 Z" />
</g>
</svg>
