<svg xmlns="http://www.w3.org/2000/svg" width="670" height="670" viewBox="0 0 670 670"><linearGradient x1="0%" x2="0%" y1="0%" y2="100%" id="a"><stop offset="0%" stop-color="#b2433b"/><stop offset="100%" stop-color="#8e1e16"/></linearGradient><path class="cls-1" d="M476.06 231.77c-5.26-6.41-29.89-17.22-29.89-17.22s-7.63-19-12.29-23.44c-5.55-5.3-31.13-11.07-31.13-11.07s-13.57-19.82-19.32-23.39c-4.35-2.7-28-2-28-2-2.1-2.12-25.86-24.16-32.89-24.78-8.54-.77-70.14 21.13-74.48 24.33-6.29 4.62-21.34 22.08-21.34 22.08s-26 1.85-31.08 7.21c-9.29 9.85-18.11 64.69-16.46 72.31 1.48 6.86 47.82 121.55 47.82 121.55s-29.3 51.51-30.59 56.53c-1.4 5.48 1.73 29.15 6.54 33.75 4.35 4.15 148.67 80.41 153.61 79.26 5.24-1.23 20.84-13.79 23.09-18.07 3.55-6.76 100.18-218.57 104.4-228.35 3.15-7.26-1.05-60.26-7.99-68.7zm-102.47 58.7c-6.67 7.08-16.21 7.8-23.33 2.82-8.06-5.64-11.68-17.23-7.41-26.39a16.87 16.87 0 0 1 11.3-9.43c6-1.76 12.47.68 17.85 5.82 7.75 7.41 8.57 19.77 1.59 27.18zm-42.13-96.17a15.74 15.74 0 0 1 10.09-8.85c6.09-1.89 12.62.71 18.1 6 7.2 6.92 8.07 19.81 1.08 27.22-6.4 6.8-14 8.25-20.82 3.79-.25-.16-1.47-1-1.62-1.13-7.72-6.13-11.1-17.88-6.83-27.03zM254 169.46c-1.22 6-2.4 15.34-2.24 16.87.4 4.08 1.56 21.07 3.39 27.41L239 184.86zM215 230c-3.53 2-11.87 8.25-18 12.95.78-5.67 2.28-15.45 4.5-24.94 2.35-10.1 6.52-20.89 7.3-21.72 1.11-1.18 9-2.72 15.41-3.81L243 225.75c-7-.07-22 .84-28 4.25zm13.18 199l19.28-36.47a226.5 226.5 0 0 1 28.33 8.23l-19.16 38c-16.98-6.51-28.49-9.84-28.49-9.84zm121.71 57.41c-8.84-5.73-20-12.63-33.17-20a426.06 426.06 0 0 0-43.91-21.22L292.42 407A353.16 353.16 0 0 1 333 426.9a343.41 343.41 0 0 1 33.38 21.6zm22.59 15.6s-3.81-2.9-10.76-7.7l16.38-36.55a119.93 119.93 0 0 1 9.66 8.82zm12.83-141c-6.33 6.72-13.92 8.05-20.72 3.65a16.62 16.62 0 0 1-3-2.2c-7.21-6.71-10.17-18-5.17-26.81a17.34 17.34 0 0 1 8.09-7.38c6-3 12.65-1.52 18.58 4.15 8.64 8.21 9.12 21.18 2.18 28.58zm1.45-136.21a13.88 13.88 0 0 1 15.86-7.95c14.82 3.77 19.73 21.78 12.21 31.1-6.79 8.42-16.58 7.62-22.14 3.09-7.39-6.04-10.07-17.52-5.97-26.29zm40.53 103.19c-6.07 6.44-13.26 7.57-19.67 3.86a15.35 15.35 0 0 1-4.51-3.45c-6.34-7-7-19.17-1.53-27.15 3.31-4.81 10-8.52 18.28-4.81 15.02 6.74 14.26 24.2 7.39 31.5zm31.38-42c-5.35 5.69-11.24 6.7-16.84 3.81a14.48 14.48 0 0 1-4.21-2.74c-6.49-6-8.12-17.33-3.64-25.22a13.34 13.34 0 0 1 8.73-6.8c5.17-1.47 10.51.68 15.36 5.31 6.38 6.1 7.02 18.75.56 25.65z" fill="url(#a)"/></svg>